<svg
  width="20"
  height="20"
  viewBox="0 0 20 20"
  fill="none"
  xmlns="http://www.w3.org/2000/svg"
>
  <path
    fill-rule="evenodd"
    clip-rule="evenodd"
    d="M4 0.00012207C1.79086 0.00012207 0 1.79098 0 4.00012V16.0001C0 18.2093 1.79086 20.0001 4 20.0001H16C18.2091 20.0001 20 18.2093 20 16.0001V4.00012C20 1.79098 18.2091 0.00012207 16 0.00012207H4ZM6.93225 14.4396C7.69018 15.1886 8.90647 15.1867 9.66215 14.4354L16.5543 7.58299C17.1464 6.99432 17.1489 6.03409 16.5599 5.44232C15.9703 4.84992 15.0133 4.85315 14.4277 5.4495L9.69094 10.2728L8.29906 11.6705L6.91595 10.2645L5.56705 8.87453C4.98512 8.27487 4.02759 8.26878 3.43815 8.86099C2.85053 9.45137 2.85447 10.4098 3.44693 10.9953L6.93225 14.4396Z"
    fill="#6E479A"
  />
</svg>
