<svg
  width="20"
  height="20"
  viewBox="0 0 20 20"
  fill="none"
  xmlns="http://www.w3.org/2000/svg"
>
  <path
    fill-rule="evenodd"
    clip-rule="evenodd"
    d="M0 4.00012C0 1.79098 1.79086 0.00012207 4 0.00012207H16C18.2091 0.00012207 20 1.79098 20 4.00012V16.0001C20 18.2093 18.2091 20.0001 16 20.0001H4C1.79086 20.0001 0 18.2093 0 16.0001V4.00012ZM2.5 4.64298C2.5 3.45951 3.45939 2.50012 4.64286 2.50012H15.3571C16.5406 2.50012 17.5 3.45951 17.5 4.64298V15.3573C17.5 16.5407 16.5406 17.5001 15.3571 17.5001H4.64286C3.45939 17.5001 2.5 16.5407 2.5 15.3573V4.64298Z"
    fill="#8A8DA6"
  />
</svg>
