<svg
  width="20"
  height="20"
  viewBox="0 0 20 20"
  fill="none"
  xmlns="http://www.w3.org/2000/svg"
>
  <path
    fill-rule="evenodd"
    clip-rule="evenodd"
    d="M0 4C0 1.79086 1.79086 0 4 0H16C18.2091 0 20 1.79086 20 4V16C20 18.2091 18.2091 20 16 20H4C1.79086 20 0 18.2091 0 16V4ZM2.5 4.64286C2.5 3.45939 3.45939 2.5 4.64286 2.5H15.3571C16.5406 2.5 17.5 3.45939 17.5 4.64286V15.3571C17.5 16.5406 16.5406 17.5 15.3571 17.5H4.64286C3.45939 17.5 2.5 16.5406 2.5 15.3571V4.64286Z"
    fill="#B3B5C6"
  />
</svg>
