<svg width="16" height="18" viewBox="0 0 16 18" fill="none" xmlns="http://www.w3.org/2000/svg">
<path d="M0.833496 7.14329C0.833496 3.19791 4.04246 0 7.99987 0C11.9583 0 15.1668 3.19791 15.1668 7.14329C15.1668 10.1394 13.3156 12.7016 10.6918 13.7626L8.13775 11.2163C10.3332 11.1428 12.0899 9.34853 12.0899 7.14329C12.0899 4.89148 10.2591 3.06665 7.99987 3.06665C5.74133 3.06665 3.91018 4.89148 3.91018 7.14329C3.91018 8.26855 4.36854 9.28778 5.10842 10.0252L10.9309 15.8316L8.75521 18L2.93264 12.1946C1.63584 10.9008 0.833496 9.11606 0.833496 7.14329Z" fill="#30303B"/>
<path d="M6.02632 9.10953C7.11666 10.1961 8.88447 10.1968 9.97359 9.10953C11.0649 8.0231 11.0649 6.26111 9.97417 5.17398C8.88447 4.08755 7.11666 4.08755 6.02632 5.17398C4.93598 6.26111 4.93598 8.0231 6.02632 9.10953Z" fill="#30303B"/>
</svg>
